<?xml version="1.0" encoding="UTF-8" standalone="no"?>
<!-- Created with Inkscape (http://www.inkscape.org/) -->

<svg
   xmlns:dc="http://purl.org/dc/elements/1.1/"
   xmlns:cc="http://creativecommons.org/ns#"
   xmlns:rdf="http://www.w3.org/1999/02/22-rdf-syntax-ns#"
   xmlns:svg="http://www.w3.org/2000/svg"
   xmlns="http://www.w3.org/2000/svg"
   xmlns:sodipodi="http://sodipodi.sourceforge.net/DTD/sodipodi-0.dtd"
   xmlns:inkscape="http://www.inkscape.org/namespaces/inkscape"
   width="210mm"
   height="297mm"
   viewBox="0 0 210 297"
   version="1.1"
   id="svg8"
   inkscape:version="0.92.5 (2060ec1f9f, 2020-04-08)"
   sodipodi:docname="magicwand.svg">
  <defs
     id="defs2" />
  <sodipodi:namedview
     id="base"
     pagecolor="#ffffff"
     bordercolor="#666666"
     borderopacity="1.0"
     inkscape:pageopacity="0.0"
     inkscape:pageshadow="2"
     inkscape:zoom="5.6"
     inkscape:cx="370.20955"
     inkscape:cy="713.31162"
     inkscape:document-units="mm"
     inkscape:current-layer="layer1"
     showgrid="false"
     inkscape:snap-global="false"
     inkscape:window-width="1920"
     inkscape:window-height="1015"
     inkscape:window-x="0"
     inkscape:window-y="0"
     inkscape:window-maximized="1" />
  <metadata
     id="metadata5">
    <rdf:RDF>
      <cc:Work
         rdf:about="">
        <dc:format>image/svg+xml</dc:format>
        <dc:type
           rdf:resource="http://purl.org/dc/dcmitype/StillImage" />
        <dc:title></dc:title>
      </cc:Work>
    </rdf:RDF>
  </metadata>
  <g
     inkscape:label="Ebene 1"
     inkscape:groupmode="layer"
     id="layer1">
    <rect
       style="fill:#000000;fill-opacity:0;stroke:none;stroke-width:0.26458332;stroke-opacity:1"
       id="rect815"
       width="59.342262"
       height="54.050598"
       x="50.648811"
       y="74.75" />
    <rect
       style="fill:#000000;fill-opacity:0;stroke:none;stroke-width:0.26458332;stroke-opacity:1"
       id="rect817"
       width="65.389885"
       height="65.011909"
       x="50.648811"
       y="74.75" />
    <rect
       style="fill:#800000;fill-opacity:0;stroke:#000000;stroke-width:0.06559877;stroke-opacity:1"
       id="rect819"
       width="16.867735"
       height="16.867735"
       x="90.992767"
       y="94.645447" />
    <rect
       style="fill:#000000;fill-opacity:1;stroke:none;stroke-width:0.26458332;stroke-opacity:1"
       id="rect821"
       width="1.5119077"
       height="12.18973"
       x="141.96785"
       y="10.561975"
       transform="rotate(41.090022)" />
    <path
       sodipodi:type="spiral"
       style="fill:none;fill-rule:evenodd;stroke:#000000;stroke-width:0.26458332;stroke-opacity:1"
       id="path831"
       sodipodi:cx="73.752602"
       sodipodi:cy="104.65736"
       sodipodi:expansion="1"
       sodipodi:revolution="3"
       sodipodi:radius="4.0955291"
       sodipodi:argument="-18.652161"
       sodipodi:t0="0"
       d="m 73.752602,104.65736 c 0.201355,0.0403 0.04506,0.29129 -0.06693,0.33466 -0.303487,0.11755 -0.571722,-0.19273 -0.602399,-0.46853 -0.05487,-0.49334 0.409098,-0.86473 0.870132,-0.87013 0.676586,-0.008 1.163376,0.62729 1.137866,1.27173 -0.034,0.85893 -0.845995,1.46423 -1.673331,1.4056 -1.041119,-0.0738 -1.7662,-1.0649 -1.673333,-2.07493 0.112475,-1.22328 1.283918,-2.0688 2.476531,-1.94107 1.405453,0.15053 2.371801,1.503 2.208799,2.87813 -0.188192,1.58764 -1.722127,2.67507 -3.27973,2.47653 -1.769848,-0.22558 -2.978517,-1.94128 -2.744265,-3.68133 0.262794,-1.95206 2.160467,-3.2821 4.082929,-3.01199 2.134297,0.29986 3.58579,2.37966 3.279732,4.48452"
       transform="matrix(-0.22143199,0.51356399,-0.55749217,-0.20398403,179.17295,81.709807)" />
    <rect
       style="fill:#000000;fill-opacity:0;stroke:#000000;stroke-width:0.26458332;stroke-opacity:1"
       id="rect829"
       width="1.5119048"
       height="2.7403271"
       x="142.17003"
       y="4.6154962"
       transform="rotate(42.382994)" />
    <path
       sodipodi:type="star"
       style="fill:#ff0000;fill-opacity:1;stroke:none;stroke-width:0.26458332;stroke-opacity:1"
       id="path835"
       sodipodi:sides="5"
       sodipodi:cx="98.982513"
       sodipodi:cy="97.995537"
       sodipodi:r1="1.6536458"
       sodipodi:r2="0.82682294"
       sodipodi:arg1="0.92729522"
       sodipodi:arg2="1.5556137"
       inkscape:flatsided="false"
       inkscape:rounded="0"
       inkscape:randomized="0"
       d="m 99.974701,99.318453 -0.979635,-0.496189 -0.964118,0.525703 0.16918,-1.085019 -0.797902,-0.75448 1.084194,-0.17439 0.470988,-0.991996 0.500888,0.97724 1.088984,0.141392 -0.774623,0.778357 z"
       inkscape:transform-center-x="0.0040326527"
       inkscape:transform-center-y="-0.071887246"
       transform="matrix(0.51975442,0,0,0.47760696,50.413584,50.839487)" />
    <path
       sodipodi:type="star"
       style="fill:#ff0000;fill-opacity:1;stroke:none;stroke-width:0.26458332;stroke-opacity:1"
       id="path835-3"
       sodipodi:sides="5"
       sodipodi:cx="98.982513"
       sodipodi:cy="97.995537"
       sodipodi:r1="1.6536458"
       sodipodi:r2="0.82682294"
       sodipodi:arg1="0.92729522"
       sodipodi:arg2="1.5556137"
       inkscape:flatsided="false"
       inkscape:rounded="0"
       inkscape:randomized="0"
       d="m 99.974701,99.318453 -0.979635,-0.496189 -0.964118,0.525703 0.16918,-1.085019 -0.797902,-0.75448 1.084194,-0.17439 0.470988,-0.991996 0.500888,0.97724 1.088984,0.141392 -0.774623,0.778357 z"
       inkscape:transform-center-x="0.0040326527"
       inkscape:transform-center-y="-0.071887246"
       transform="matrix(0.51975443,0,0,0.47760697,53.06785,50.271882)" />
    <path
       sodipodi:type="star"
       style="fill:#ff0000;fill-opacity:1;stroke:none;stroke-width:0.26458332;stroke-opacity:1"
       id="path835-6"
       sodipodi:sides="5"
       sodipodi:cx="98.982513"
       sodipodi:cy="97.995537"
       sodipodi:r1="1.6536458"
       sodipodi:r2="0.82682294"
       sodipodi:arg1="0.92729522"
       sodipodi:arg2="1.5556137"
       inkscape:flatsided="false"
       inkscape:rounded="0"
       inkscape:randomized="0"
       d="m 99.974701,99.318453 -0.979635,-0.496189 -0.964118,0.525703 0.16918,-1.085019 -0.797902,-0.75448 1.084194,-0.17439 0.470988,-0.991996 0.500888,0.97724 1.088984,0.141392 -0.774623,0.778357 z"
       inkscape:transform-center-x="0.0040326527"
       inkscape:transform-center-y="-0.071887246"
       transform="matrix(0.51975443,0,0,0.47760697,52.208342,51.990996)" />
    <path
       sodipodi:type="star"
       style="fill:#ff0000;fill-opacity:1;stroke:none;stroke-width:0.26458332;stroke-opacity:1"
       id="path835-6-7"
       sodipodi:sides="5"
       sodipodi:cx="98.982513"
       sodipodi:cy="97.995537"
       sodipodi:r1="1.6536458"
       sodipodi:r2="0.82682294"
       sodipodi:arg1="0.92729522"
       sodipodi:arg2="1.5556137"
       inkscape:flatsided="false"
       inkscape:rounded="0"
       inkscape:randomized="0"
       d="m 99.974701,99.318453 -0.979635,-0.496189 -0.964118,0.525703 0.16918,-1.085019 -0.797902,-0.75448 1.084194,-0.17439 0.470988,-0.991996 0.500888,0.97724 1.088984,0.141392 -0.774623,0.778357 z"
       inkscape:transform-center-x="0.0040326527"
       inkscape:transform-center-y="-0.071887246"
       transform="matrix(0.51975443,0,0,0.47760697,54.201779,49.563177)" />
    <path
       sodipodi:type="star"
       style="fill:#ff0000;fill-opacity:1;stroke:none;stroke-width:0.26458332;stroke-opacity:1"
       id="path835-6-5"
       sodipodi:sides="5"
       sodipodi:cx="98.982513"
       sodipodi:cy="97.995537"
       sodipodi:r1="1.6536458"
       sodipodi:r2="0.82682294"
       sodipodi:arg1="0.92729522"
       sodipodi:arg2="1.5556137"
       inkscape:flatsided="false"
       inkscape:rounded="0"
       inkscape:randomized="0"
       d="m 99.974701,99.318453 -0.979635,-0.496189 -0.964118,0.525703 0.16918,-1.085019 -0.797902,-0.75448 1.084194,-0.17439 0.470988,-0.991996 0.500888,0.97724 1.088984,0.141392 -0.774623,0.778357 z"
       inkscape:transform-center-x="0.0040326527"
       inkscape:transform-center-y="-0.071887246"
       transform="matrix(0.51975443,0,0,0.47760697,54.532508,51.689293)" />
    <path
       sodipodi:type="star"
       style="fill:#ff0000;fill-opacity:1;stroke:none;stroke-width:0.26458332;stroke-opacity:1"
       id="path835-6-3"
       sodipodi:sides="5"
       sodipodi:cx="98.982513"
       sodipodi:cy="97.995537"
       sodipodi:r1="1.6536458"
       sodipodi:r2="0.82682294"
       sodipodi:arg1="0.92729522"
       sodipodi:arg2="1.5556137"
       inkscape:flatsided="false"
       inkscape:rounded="0"
       inkscape:randomized="0"
       d="m 99.974701,99.318453 -0.979635,-0.496189 -0.964118,0.525703 0.16918,-1.085019 -0.797902,-0.75448 1.084194,-0.17439 0.470988,-0.991996 0.500888,0.97724 1.088984,0.141392 -0.774623,0.778357 z"
       inkscape:transform-center-x="0.0040326527"
       inkscape:transform-center-y="-0.071887246"
       transform="matrix(0.51975443,0,0,0.47760697,53.493072,54.240633)" />
    <path
       sodipodi:type="star"
       style="fill:#ff0000;fill-opacity:1;stroke:none;stroke-width:0.26458332;stroke-opacity:1"
       id="path835-6-56"
       sodipodi:sides="5"
       sodipodi:cx="98.982513"
       sodipodi:cy="97.995537"
       sodipodi:r1="1.6536458"
       sodipodi:r2="0.82682294"
       sodipodi:arg1="0.92729522"
       sodipodi:arg2="1.5556137"
       inkscape:flatsided="false"
       inkscape:rounded="0"
       inkscape:randomized="0"
       d="m 99.974701,99.318453 -0.979635,-0.496189 -0.964118,0.525703 0.16918,-1.085019 -0.797902,-0.75448 1.084194,-0.17439 0.470988,-0.991996 0.500888,0.97724 1.088984,0.141392 -0.774623,0.778357 z"
       inkscape:transform-center-x="0.0040326527"
       inkscape:transform-center-y="-0.071887246"
       transform="matrix(0.51975443,0,0,0.47760697,51.792179,48.948965)" />
  </g>
</svg>
